Patient4_TMGait_0pt8_01_left_15_EMG.mot
version=1
nRows=37
nColumns=33
inDegrees=no
endheader
time	1LAddLong	2LGlutMax	3LGlutMed	4LIliopsoas	5LSemiMemb	6LBicFemLong	7LRecFem	8LVastMed	9LVastLat	10LGasMed	11LTibAnt	12lTibPost	13LPeroneusLong	14LSol	15LExtDigLong	16LFlexDigLong	17RAddLong	18RGlutMax	19RGlutMed	20RIliopsoas	21RSemiMemb	22RBicFemLong	23RRecFem	24RVastMed	25RVastLat	26RGasMed	27RTibAnt	28RTibPost	29RPeroneusLong	30RSol	31RExtDigLong	32RFlexDigLong
16.4	-0.015717	0.63278	0.2002	-0.004883	-0.041351	0.40436	0.36835	0.055847	-0.3714	-0.076599	-0.000763	-0.14984	0.097046	-0.043945	-0.022278	0.045013	-0.016785	-0.092926	-0.18753	0.11871	-0.076447	-0.060883	0.83786	-0.014038	-0.032349	0.023193	0.30426	0.001221	0.036316	-0.015869	-0.012665	-0.023499
16.401	-0.011749	0.58548	0.098877	-0.029755	-0.083313	0.47455	0.30685	0.045624	-0.35126	-0.098267	0.000305	-0.028687	0.28854	-0.04776	0.019379	0.059509	-0.092773	-0.14008	-0.18265	0.17838	-0.10056	-0.10315	0.76782	0.025635	-0.037842	0.004272	0.13504	-0.001068	-0.066833	0.036469	-0.003052	-0.022278
16.402	-0.007782	0.51605	0.025635	0.002899	-0.10956	0.39383	0.09613	0.047913	-0.3186	-0.082092	0.000763	-0.023346	0.23315	-0.067444	0.039215	0.038605	-0.12894	-0.20874	-0.2594	0.11795	-0.11292	-0.091248	0.7402	0.02594	-0.021667	0.002136	-0.11078	0.001526	-0.10422	0.009766	-0.003357	-0.031586
16.403	0.00824	0.439	-0.083923	0.026398	-0.10346	0.19516	0.018616	0.023193	-0.24689	-0.086365	0.012207	0.002594	0.25009	-0.087585	0.031433	0.035248	-0.11078	-0.21988	-0.26276	0.054474	-0.12619	-0.059204	0.6987	0.006409	-0.046844	0.003815	-0.19516	0.002289	-0.10391	0.05249	-0.006866	-0.03418
16.404	0.002594	0.31204	-0.13412	0.039978	-0.10208	-0.052185	0.027466	-0.017853	-0.24872	-0.087433	-0.008545	0.000763	0.11124	-0.031433	0.045929	0.031738	-0.068512	-0.23254	-0.50736	-0.019379	-0.12848	-0.052795	0.71976	0.012054	-0.048065	0.005951	-0.13397	-0.000305	-0.062561	0.023499	-0.001678	-0.033417
16.405	-0.001678	0.19089	-0.12207	0.009308	-0.080566	-0.55252	0.047302	-0.016174	-0.18524	-0.052643	-0.004578	0.009155	-0.17197	-0.000916	0.037231	0.031586	-0.037384	-0.27679	-0.60165	-0.1062	-0.093384	0.006104	0.68161	0.04364	-0.025787	0.005188	0.050049	0.005035	-0.14267	-0.039063	-0.004425	-0.026703
16.406	0.015564	0.12329	0.15182	0.00473	0.097656	-0.89783	-0.050201	-0.002899	-0.20187	-0.035095	0.018311	0.001984	-0.091248	-0.049133	-0.04364	0.029449	0.017242	-0.242	-0.40268	-0.12695	-0.040283	0.003357	0.73395	0.065918	-0.036163	0.013123	0.14862	0.000763	-0.1741	-0.092163	-0.000458	-0.03067
16.407	0.023499	0.027313	0.27283	-0.005951	0.080872	-0.52277	-0.12909	0	-0.25375	-0.049133	0.010986	0.001984	0.083771	-0.11826	-0.03418	0.031281	0.02655	-0.19638	-0.24735	-0.033112	-0.032654	0.02182	0.70847	0.022736	-0.016785	0.017548	0.57999	0.005646	-0.14526	-0.14694	-0.000458	-0.032196
16.408	0.029144	-0.064697	0.15518	-0.013885	0.001831	-0.34393	-0.15991	0.006409	-0.31723	-0.058136	0.024719	0.00473	-0.029297	-0.15884	-0.054779	0.025177	0.014038	-0.26443	-0.43274	0.10178	-0.049438	0.062408	0.69916	0.00946	-0.0177	0.020142	0.923	0.003052	-0.17288	-0.19134	-0.001984	-0.030823
16.409	0.0383	-0.092316	0.056915	-0.001373	0.028229	0.009155	-0.19043	0.009155	-0.35477	-0.12482	0.001678	0.019226	-0.18051	-0.034943	-0.046387	0	0.053253	-0.32013	-0.40161	0.14755	-0.00885	0.082703	0.76828	-0.01236	-0.010834	0.022278	1.0217	0.00885	-0.14023	-0.28534	-0.006104	-0.019073
16.41	0.021057	-0.1471	0.0383	-0.001526	-0.020447	0.084991	-0.20371	0.011292	-0.37155	-0.19913	-0.012207	0.019379	-0.074463	0.019684	-0.019684	0.015106	0.065155	-0.33478	-0.10544	0.1033	-0.041504	0.069275	0.74402	-0.024109	-0.015259	0.025024	-0.095673	0.002594	0.045166	-0.22095	-0.000916	-0.020142
16.411	0.006104	-0.20859	0.070343	0.015717	-0.11429	0.012207	-0.16159	-0.017242	-0.32196	-0.15976	-0.004425	0.024261	0.099182	0.056305	-0.006561	0.014801	0.050049	-0.33615	-0.13382	0.074158	-0.055389	0.10132	0.70694	-0.012665	-0.021515	0.00824	-0.16647	0.001678	-0.025635	-0.055237	-0.007172	-0.020752
16.412	0.017395	-0.19852	0.044403	0.001221	-0.11383	-0.058441	-0.03952	-0.014191	-0.18387	-0.11368	0.012817	0.048828	0.080109	0.017853	0.028534	0.011292	0.033112	-0.34958	-0.4602	0.024414	-0.046844	0.21652	0.63858	-0.08606	-0.058289	-0.000153	0.027771	0.001221	0.018921	0.072632	-0.004578	-0.025787
16.413	0.033722	-0.16251	0.02121	-0.010376	0.029907	-0.055237	0.010223	-0.006866	-0.10498	-0.030518	0.002899	0.066528	0.043945	-0.054321	0.03067	0.00824	-0.00946	-0.41534	-0.8107	0.05661	-0.046387	0.22308	0.62271	-0.1651	-0.081177	0.005646	0.003204	-0.001068	0.0354	0.13016	0.000153	-0.018311
16.414	0.026093	-0.11917	0.033264	-0.002136	0.048065	0.007172	0.0354	0.004425	-0.11078	0.009613	0.008087	0.072021	-0.073242	0.036316	0.011749	-0.010681	-0.004578	-0.40573	-0.94467	0.11017	-0.07782	0.077972	0.72708	-0.18387	-0.10391	0.006104	-0.19791	0.002441	-0.002136	0.091553	-0.005341	-0.02655
16.415	0.021515	-0.069122	0.050812	0.011749	0.045319	0.046234	-0.027008	-0.005341	-0.16251	0.039825	0.010223	-0.049591	-0.11566	0.25207	0.007477	-0.040131	0.031433	-0.41809	-0.82901	0.18326	-0.10559	0.049438	0.76828	-0.22934	-0.11704	0.011749	-0.25833	0.003052	-0.010986	0.064392	-0.005035	-0.024872
16.416	0.012512	-0.068817	0.085602	-0.005798	0.038452	0.13901	-0.086823	0.00061	-0.18875	0.087738	-0.000153	0.4068	-0.052643	0.25085	-0.024719	-0.040588	0.066833	-0.36652	-0.67963	0.10651	-0.11139	0.059052	0.88913	-0.22903	-0.11856	0.007629	-0.077362	0.006714	-0.023499	0.11154	0.000305	-0.036011
16.417	0.003052	-0.064392	0.070343	0.000305	0.005035	0.20294	-0.17273	0.00473	-0.18478	0.12039	-0.001526	-0.084991	0.017395	-0.13428	-0.04364	0.003357	0.1062	-0.33279	-0.63263	-0.053558	-0.11047	0.052643	0.89157	-0.26474	-0.10895	-0.00473	-0.029907	0.006104	-0.12787	0.047607	-0.003357	-0.038452
16.418	-0.00885	-0.080719	0.036774	-0.013123	-0.053253	0.25864	-0.19928	0.011902	-0.15564	0.10025	0.001678	-0.010071	-0.01236	-0.026855	-0.021057	0.049744	0.11932	-0.39108	-0.66376	-0.022888	-0.1294	0.053558	0.92377	-0.22919	-0.087128	0.000458	0.041046	0.000763	-0.13947	-0.004578	-0.007324	-0.017853
16.419	-0.022888	-0.15472	0.040588	-0.006409	-0.10086	0.25497	-0.24597	0.014343	-0.084534	0.018616	-0.001068	0.076599	0.003967	0.006409	-0.041351	0.0177	0.081482	-0.32303	-0.89691	0.033722	-0.11688	0.089417	0.9848	-0.23621	-0.078888	0.004883	0.027008	0.00351	-0.076752	-0.069122	-0.001831	-0.033722
16.42	-0.005798	-0.15152	0.032196	0.003967	-0.15411	0.20309	-0.29236	0.00824	0.012054	0.02655	0.005035	0.072937	-0.005035	-0.1622	-0.012512	-0.007172	0.042572	-0.29144	-0.98984	0.073547	-0.13306	0.09964	0.96756	-0.22614	-0.067291	0.007629	-0.009613	0.006866	-0.014038	-0.098267	0.001678	-0.02533
16.421	0.021057	-0.17197	0.066223	0.005341	-0.028687	0.19638	-0.3215	-0.001068	0.044708	0.11124	0.007324	0.066986	-0.016785	-0.030365	-0.003662	-0.01236	0.012207	-0.27008	-0.97549	0.13657	-0.14236	0.065155	0.83618	-0.16419	-0.029755	0.003967	0.23926	0.005341	-0.003204	-0.088348	-0.001068	-0.022736
16.422	0.050354	-0.17777	0.1091	0.005188	0.058594	0.13229	-0.29999	-0.005798	0.11215	0.25055	0.024872	0.059509	-0.056763	0.013275	0.010071	-0.057831	-0.043182	-0.25909	-0.85144	0.17914	-0.14877	0.065155	0.75638	-0.15503	-0.031586	0.004272	0.46402	0.002899	-0.07309	-0.076294	-0.003204	-0.023346
16.423	0.010834	-0.24399	0.11444	-0.015259	-0.006256	-0.036163	-0.27206	0.00061	0.040588	0.34271	0.020752	0.062103	-0.15533	-0.022888	0.016632	0.082855	-0.10162	-0.23911	-1.1478	0.14786	-0.16708	0.1088	0.81314	-0.14313	-0.00824	0.001526	0.23605	0.000153	-0.11643	-0.034485	-0.00473	-0.024414
16.424	-0.032654	-0.30121	0.056763	-0.011139	-0.0737	-0.15884	-0.1918	0.002594	0.024414	0.3067	0.033417	0.057678	-0.20142	-0.17105	0.015411	-0.11551	-0.1178	-0.19623	-1.3724	0.081329	-0.15076	0.11231	0.86273	-0.12314	-0.014496	0.004883	0.24857	-0.001068	-0.088501	-0.028992	-0.005798	-0.018616
16.425	0.00885	-0.30991	0.063629	-0.016632	-0.074921	-0.40253	-0.17777	0.007172	0.059052	0.10956	0.016174	0.049896	0.098419	-0.12573	0.022583	0.10864	-0.12955	-0.24612	-1.1876	-0.021515	-0.13489	0.15243	0.92499	-0.13489	-0.029755	0.003204	0.19058	0.002899	-0.087891	0.004425	-0.000153	-0.018768
16.426	0.040283	-0.30807	0.08316	-0.011444	-0.049438	-0.34805	-0.19699	0.007477	0.057983	-0.16754	0.000458	0.03891	0.3418	0.052032	0.06958	0.2652	-0.085907	-0.18494	-0.73898	-0.12924	-0.13611	0.19562	0.89844	-0.20737	-0.02655	0.007477	0.1947	-0.003967	-0.075836	-0.069275	-0.003052	-0.020142
16.427	0.054474	-0.31143	0.064697	0.00061	-0.027771	-0.19455	-0.14893	0.005951	0.12955	-0.23636	0.006866	0.071564	0.28122	0.15152	0.076294	-0.13947	-0.04364	-0.17487	-1.0088	-0.085907	-0.11719	0.18585	0.7283	-0.23911	-0.02655	0.003967	0.18265	0.001373	-0.063782	-0.11978	-0.001831	-0.013885
16.428	0.015411	-0.30899	0.015717	0.030975	-0.050049	0.041809	-0.067902	0.013428	0.26871	-0.16098	0.001831	0.065002	0.25436	-0.019989	0.019836	-0.16785	0.007629	-0.13611	-1.3754	0.009155	-0.12665	0.15778	0.6131	-0.31372	-0.037384	0.007935	-0.22553	0.00061	0.007477	-0.15396	-0.002899	-0.015259
16.429	0.014496	-0.31601	-0.050201	0.007324	-0.053406	0.15625	-0.090637	0.015106	0.31113	-0.074158	-0.000458	0.018463	-0.013885	-0.22583	-0.029297	-0.032806	0.044708	-0.12405	-1.3907	0.001526	-0.13519	0.15411	0.47211	-0.354	-0.052185	0.005188	-0.21057	0.002441	-0.062561	-0.14969	-0.001831	-0.011749
16.43	0.01236	-0.33615	0.015106	-0.019379	-0.055847	0.159	-0.15884	0.024719	0.26306	-0.1506	0.001373	-0.027924	0.22018	-0.27695	-0.019226	-0.027771	0.016632	-0.14175	-1.2972	-0.074615	-0.14496	0.16525	0.29953	-0.31662	-0.033722	0.005646	-0.050659	-0.003204	-0.08255	-0.12451	0.000916	-0.014496
16.431	0.022736	-0.34805	-0.010071	-0.018463	-0.033417	0.060577	-0.19898	0.016937	0.25971	-0.20416	0.015259	-0.010376	-0.23209	-0.17242	-0.056458	-0.023041	-0.004425	-0.18127	-1.7839	-0.10468	-0.12909	0.19714	0.37781	-0.22186	-0.022583	0.006714	-0.032349	-0.005951	-0.084229	-0.074158	0.001678	-0.011139
16.432	0.024567	-0.32333	-0.007935	-0.024872	-0.078583	0.10117	-0.23102	0.008698	0.23804	-0.12375	0.011444	0.015717	-0.31998	0.065765	-0.037231	-0.022888	-0.0354	-0.14008	-2.112	-0.1181	-0.11704	0.21851	0.45136	-0.22629	-0.013885	0.004883	-0.032349	-0.000305	-0.038147	-0.044098	-0.003204	-0.009003
16.433	0.023346	-0.3157	-0.007782	-0.017853	-0.072174	0.002289	-0.16403	-0.00885	0.04364	-0.021057	0.003204	-0.001984	-0.27832	0.025635	-0.061951	-0.007782	-0.030365	-0.067902	-1.8672	-0.081787	-0.1001	0.20889	0.50095	-0.19516	0.000916	0.001068	-0.000153	-0.003357	-0.072784	-0.067749	-0.005035	-0.009308
16.434	0.020599	-0.30868	0.054474	-0.000458	-0.037231	-0.062866	-0.13306	-0.005798	-0.21698	0.048981	-0.006561	-0.11551	0.14725	-0.22003	-0.042572	-0.003204	-0.02243	0.05127	-1.4395	0.015259	-0.09903	0.20416	0.53528	-0.055847	-0.011749	0.006256	0.042877	-0.00473	-0.12482	-0.095062	-0.001526	-0.009766
16.435	0.002441	-0.25116	0.12589	0.009155	-0.055084	-0.11444	-0.14099	0.005493	-0.14481	0.06073	-0.005035	0.099335	0.16403	-0.13718	0.037994	0.005188	-0.001831	0.14481	-1.3084	0.14618	-0.11047	0.17593	0.56152	0.026245	-0.010376	0.001373	0.069122	-0.005951	-0.087738	-0.10574	-0.003815	-0.011444
16.436	0.020142	-0.17548	0.012512	0.005951	-0.083008	-0.016785	-0.16907	0.006866	-0.011749	0.10254	0.004578	-0.11459	0.041504	-0.31464	0.010834	-0.015564	0.006866	0.24979	-1.0767	0.10513	-0.14267	0.15396	0.8725	0.032806	-0.016327	0.00061	0.1712	-0.003662	-0.14664	-0.10452	-0.001984	-0.012512
